<svg width="40" height="40" viewBox="0 0 40 40" fill="none" xmlns="http://www.w3.org/2000/svg">
<g clip-path="url(#clip0_17_104)">
<path d="M27.7411 12.9821C27.7411 12.7857 27.5804 12.625 27.3839 12.625L24.4375 12.6384L20 17.9286L15.567 12.6429L12.6161 12.6295C12.4197 12.6295 12.2589 12.7857 12.2589 12.9866C12.2589 13.0714 12.2902 13.1518 12.3438 13.2188L18.1518 20.1384L12.3438 27.0536C12.2898 27.119 12.2599 27.2009 12.2589 27.2857C12.2589 27.4821 12.4197 27.6429 12.6161 27.6429L15.567 27.6295L20 22.3393L24.433 27.625L27.3795 27.6384C27.5759 27.6384 27.7366 27.4821 27.7366 27.2812C27.7366 27.1964 27.7054 27.1161 27.6518 27.0491L21.8527 20.1339L27.6607 13.2143C27.7143 13.1518 27.7411 13.067 27.7411 12.9821Z" fill="black"/>
<path d="M20 0.0446472C8.95536 0.0446472 0 9 0 20.0446C0 31.0893 8.95536 40.0446 20 40.0446C31.0446 40.0446 40 31.0893 40 20.0446C40 9 31.0446 0.0446472 20 0.0446472ZM20 36.6518C10.8304 36.6518 3.39286 29.2143 3.39286 20.0446C3.39286 10.875 10.8304 3.4375 20 3.4375C29.1696 3.4375 36.6071 10.875 36.6071 20.0446C36.6071 29.2143 29.1696 36.6518 20 36.6518Z" fill="black"/>
</g>
<defs>
<clipPath id="clip0_17_104">
<rect width="40" height="40" fill="white"/>
</clipPath>
</defs>
</svg>
