<svg width="40" height="36" viewBox="0 0 40 36" fill="none" xmlns="http://www.w3.org/2000/svg">
<path d="M38.3482 7.80353C37.7498 6.41798 36.887 5.16241 35.808 4.1071C34.7283 3.04865 33.4552 2.20751 32.058 1.62943C30.6093 1.02761 29.0554 0.719565 27.4866 0.723176C25.2857 0.723176 23.1384 1.32585 21.2723 2.46425C20.8259 2.73657 20.4018 3.03568 20 3.36157C19.5982 3.03568 19.1741 2.73657 18.7277 2.46425C16.8616 1.32585 14.7143 0.723176 12.5134 0.723176C10.9286 0.723176 9.39287 1.02675 7.94197 1.62943C6.54019 2.20978 5.27679 3.0446 4.19197 4.1071C3.1116 5.16122 2.24857 6.41709 1.65179 7.80353C1.03126 9.2455 0.714294 10.7767 0.714294 12.3526C0.714294 13.8392 1.01787 15.3884 1.62054 16.9642C2.12501 18.2812 2.84822 19.6473 3.77233 21.0267C5.23662 23.2098 7.25001 25.4866 9.75001 27.7946C13.8929 31.6205 17.9955 34.2634 18.1697 34.3705L19.2277 35.0491C19.6964 35.3482 20.2991 35.3482 20.7679 35.0491L21.8259 34.3705C22 34.2589 26.0982 31.6205 30.2455 27.7946C32.7455 25.4866 34.7589 23.2098 36.2232 21.0267C37.1473 19.6473 37.875 18.2812 38.375 16.9642C38.9777 15.3884 39.2813 13.8392 39.2813 12.3526C39.2857 10.7767 38.9688 9.2455 38.3482 7.80353ZM20 31.5178C20 31.5178 4.10715 21.3348 4.10715 12.3526C4.10715 7.80353 7.87054 4.11603 12.5134 4.11603C15.7768 4.11603 18.6072 5.93746 20 8.59818C21.3929 5.93746 24.2232 4.11603 27.4866 4.11603C32.1295 4.11603 35.8929 7.80353 35.8929 12.3526C35.8929 21.3348 20 31.5178 20 31.5178Z" fill="black"/>
</svg>
