<svg width="40" height="35" viewBox="0 0 40 35" fill="none" xmlns="http://www.w3.org/2000/svg">
<path d="M39.2054 16.8482C37.636 13.542 35.7685 10.8455 33.6027 8.75894L31.3313 11.0304C33.1835 12.8005 34.7969 15.1161 36.192 18C32.4777 25.6875 27.2054 29.3393 20 29.3393C17.8372 29.3393 15.8451 29.0063 14.0237 28.3402L11.5625 30.8013C14.0923 31.9695 16.9048 32.5536 20 32.5536C28.5804 32.5536 34.9822 28.0848 39.2054 19.1473C39.3752 18.7879 39.4632 18.3953 39.4632 17.9978C39.4632 17.6003 39.3752 17.2077 39.2054 16.8482ZM36.3674 2.53394L34.4643 0.628579C34.4311 0.595373 34.3917 0.569031 34.3484 0.551058C34.305 0.533085 34.2586 0.523834 34.2116 0.523834C34.1647 0.523834 34.1182 0.533085 34.0749 0.551058C34.0315 0.569031 33.9921 0.595373 33.9589 0.628579L29.0764 5.50894C26.3844 4.13394 23.3589 3.44644 20 3.44644C11.4197 3.44644 5.01787 7.91519 0.794657 16.8527C0.624904 17.2121 0.536865 17.6047 0.536865 18.0022C0.536865 18.3998 0.624904 18.7923 0.794657 19.1518C2.48186 22.7054 4.51311 25.5537 6.88841 27.6969L2.1643 32.4197C2.09737 32.4866 2.05978 32.5774 2.05978 32.6721C2.05978 32.7668 2.09737 32.8576 2.1643 32.9246L4.0701 34.8304C4.13707 34.8973 4.22788 34.9349 4.32256 34.9349C4.41724 34.9349 4.50804 34.8973 4.57501 34.8304L36.3674 3.03929C36.4006 3.00612 36.427 2.96674 36.4449 2.92338C36.4629 2.88002 36.4722 2.83355 36.4722 2.78662C36.4722 2.73968 36.4629 2.69321 36.4449 2.64985C36.427 2.60649 36.4006 2.56711 36.3674 2.53394ZM3.80805 18C7.5268 10.3125 12.7991 6.66072 20 6.66072C22.4348 6.66072 24.6487 7.07858 26.6572 7.92813L23.5188 11.0665C22.0325 10.2735 20.3306 9.97919 18.6643 10.227C16.998 10.4748 15.4555 11.2516 14.2643 12.4428C13.073 13.634 12.2962 15.1766 12.0484 16.8429C11.8006 18.5092 12.0949 20.211 12.888 21.6973L9.16385 25.4214C7.10269 23.6022 5.32591 21.1375 3.80805 18ZM14.8214 18C14.8222 17.2128 15.0087 16.4369 15.3657 15.7353C15.7227 15.0337 16.2402 14.4262 16.876 13.9621C17.5119 13.4981 18.2483 13.1906 19.0254 13.0646C19.8025 12.9386 20.5983 12.9977 21.3482 13.2371L15.0585 19.5268C14.9008 19.0332 14.8209 18.5181 14.8214 18Z" fill="black"/>
</svg>
