<svg width="38" height="38" viewBox="0 0 38 38" fill="none" xmlns="http://www.w3.org/2000/svg">
<path d="M37.1116 2.78571L35.2187 0.892855C35.1473 0.821427 35.058 0.790176 34.9643 0.790176C34.8705 0.790176 34.7812 0.825891 34.7098 0.892855L31.3125 4.29018C29.8356 3.28952 28.092 2.75601 26.308 2.75893C24.0223 2.75893 21.7366 3.62946 19.9911 5.375L15.442 9.92411C15.3755 9.99123 15.3382 10.0819 15.3382 10.1763C15.3382 10.2708 15.3755 10.3614 15.442 10.4286L27.5714 22.558C27.6428 22.6295 27.7321 22.6607 27.8259 22.6607C27.9152 22.6607 28.0089 22.625 28.0803 22.558L32.6295 18.0089C35.7053 14.9286 36.067 10.1652 33.7143 6.69196L37.1116 3.29464C37.25 3.15178 37.25 2.92411 37.1116 2.78571ZM30.4777 15.8616L27.8259 18.5134L19.4866 10.1741L22.1384 7.52232C23.25 6.41071 24.7321 5.79464 26.308 5.79464C27.8839 5.79464 29.3616 6.40625 30.4777 7.52232C31.5893 8.63393 32.2053 10.1161 32.2053 11.692C32.2053 13.2679 31.5893 14.7455 30.4777 15.8616ZM21.9866 20.5491C21.9195 20.4826 21.8288 20.4454 21.7344 20.4454C21.6399 20.4454 21.5493 20.4826 21.4821 20.5491L18.5089 23.5223L14.4777 19.4911L17.4553 16.5134C17.5937 16.375 17.5937 16.1473 17.4553 16.0089L15.8303 14.3839C15.7632 14.3175 15.6726 14.2802 15.5781 14.2802C15.4837 14.2802 15.393 14.3175 15.3259 14.3839L12.3482 17.3616L10.4286 15.442C10.3952 15.4086 10.3555 15.3823 10.3118 15.3647C10.2681 15.347 10.2212 15.3384 10.1741 15.3393C10.0848 15.3393 9.99106 15.375 9.91963 15.442L5.37499 19.9911C2.29909 23.0714 1.93749 27.8348 4.29016 31.308L0.892843 34.7054C0.826378 34.7725 0.789093 34.8631 0.789093 34.9576C0.789093 35.0521 0.826378 35.1427 0.892843 35.2098L2.7857 37.1027C2.85713 37.1741 2.94641 37.2054 3.04016 37.2054C3.13391 37.2054 3.2232 37.1696 3.29463 37.1027L6.69195 33.7054C8.19642 34.7277 9.94642 35.2366 11.6964 35.2366C13.9821 35.2366 16.2678 34.3661 18.0134 32.6205L22.5625 28.0714C22.7009 27.933 22.7009 27.7054 22.5625 27.567L20.6428 25.6473L23.6205 22.6696C23.7589 22.5312 23.7589 22.3036 23.6205 22.1652L21.9866 20.5491ZM15.8616 30.4777C15.3152 31.0269 14.6654 31.4623 13.9497 31.7589C13.234 32.0554 12.4666 32.2072 11.692 32.2054C10.1161 32.2054 8.63838 31.5937 7.52231 30.4777C6.97312 29.9313 6.53767 29.2815 6.24113 28.5658C5.94458 27.8501 5.79283 27.0827 5.79463 26.308C5.79463 24.7321 6.40624 23.2545 7.52231 22.1384L10.1741 19.4866L18.5134 27.8259L15.8616 30.4777Z" fill="black"/>
</svg>
