<svg width="40" height="40" viewBox="0 0 40 40" fill="none" xmlns="http://www.w3.org/2000/svg">
<path d="M17.8574 20C17.8574 20.5683 18.0832 21.1134 18.485 21.5152C18.8869 21.9171 19.4319 22.1429 20.0003 22.1429C20.5686 22.1429 21.1136 21.9171 21.5155 21.5152C21.9173 21.1134 22.1431 20.5683 22.1431 20C22.1431 19.4317 21.9173 18.8866 21.5155 18.4848C21.1136 18.0829 20.5686 17.8571 20.0003 17.8571C19.4319 17.8571 18.8869 18.0829 18.485 18.4848C18.0832 18.8866 17.8574 19.4317 17.8574 20ZM26.786 20C26.786 20.5683 27.0117 21.1134 27.4136 21.5152C27.8155 21.9171 28.3605 22.1429 28.9288 22.1429C29.4971 22.1429 30.0422 21.9171 30.4441 21.5152C30.8459 21.1134 31.0717 20.5683 31.0717 20C31.0717 19.4317 30.8459 18.8866 30.4441 18.4848C30.0422 18.0829 29.4971 17.8571 28.9288 17.8571C28.3605 17.8571 27.8155 18.0829 27.4136 18.4848C27.0117 18.8866 26.786 19.4317 26.786 20ZM8.92883 20C8.92883 20.5683 9.15459 21.1134 9.55645 21.5152C9.95832 21.9171 10.5034 22.1429 11.0717 22.1429C11.64 22.1429 12.185 21.9171 12.5869 21.5152C12.9888 21.1134 13.2145 20.5683 13.2145 20C13.2145 19.4317 12.9888 18.8866 12.5869 18.4848C12.185 18.0829 11.64 17.8571 11.0717 17.8571C10.5034 17.8571 9.95832 18.0829 9.55645 18.4848C9.15459 18.8866 8.92883 19.4317 8.92883 20ZM38.4467 12.25C37.4378 9.85268 35.9913 7.70089 34.1476 5.85268C32.3167 4.01516 30.1433 2.55456 27.7503 1.55357C25.2949 0.522322 22.6878 0 20.0003 0H19.911C17.2056 0.0133929 14.5851 0.549107 12.1208 1.60268C9.74827 2.61393 7.59519 4.07713 5.78151 5.91071C3.95561 7.75446 2.52258 9.89732 1.53151 12.2857C0.504717 14.7589 -0.0131377 17.3884 0.000255161 20.0938C0.0154036 23.1941 0.748876 26.2487 2.14311 29.0179V35.8036C2.14311 36.3482 2.35947 36.8705 2.74459 37.2557C3.12971 37.6408 3.65204 37.8571 4.19668 37.8571H10.9869C13.756 39.2514 16.8106 39.9849 19.911 40H20.0047C22.6788 40 25.2726 39.4821 27.7145 38.4688C30.0955 37.4797 32.2608 36.0361 34.0895 34.2188C35.9333 32.3929 37.3842 30.2589 38.3976 27.8795C39.4511 25.4152 39.9869 22.7946 40.0003 20.0893C40.0136 17.3705 39.4869 14.7321 38.4467 12.25ZM31.7011 31.8036C28.5717 34.9018 24.4199 36.6071 20.0003 36.6071H19.9244C17.2324 36.5938 14.5583 35.9241 12.1967 34.6652L11.8217 34.4643H5.53597V28.1786L5.33508 27.8036C4.07615 25.442 3.40651 22.7679 3.39311 20.0759C3.37526 15.625 5.07614 11.4464 8.19668 8.29911C11.3128 5.15179 15.4779 3.41071 19.9288 3.39286H20.0047C22.2369 3.39286 24.402 3.82589 26.4422 4.68304C28.4333 5.51786 30.219 6.71875 31.7547 8.25446C33.286 9.78571 34.4913 11.5759 35.3261 13.567C36.1922 15.6295 36.6253 17.817 36.6163 20.0759C36.5895 24.5223 34.844 28.6875 31.7011 31.8036Z" fill="black"/>
</svg>
