<svg width="36" height="36" viewBox="0 0 36 36" fill="none" xmlns="http://www.w3.org/2000/svg">
<path d="M35.75 33.2902L24.1562 21.6964C25.9554 19.3705 26.9286 16.5268 26.9286 13.5357C26.9286 9.95536 25.5312 6.59821 23.0045 4.06696C20.4777 1.53571 17.1116 0.142856 13.5357 0.142856C9.95982 0.142856 6.59375 1.54018 4.06696 4.06696C1.53571 6.59375 0.142853 9.95536 0.142853 13.5357C0.142853 17.1116 1.54017 20.4777 4.06696 23.0045C6.59375 25.5357 9.95535 26.9286 13.5357 26.9286C16.5268 26.9286 19.3661 25.9554 21.692 24.1607L33.2857 35.75C33.3197 35.784 33.3601 35.811 33.4045 35.8294C33.4489 35.8478 33.4965 35.8573 33.5446 35.8573C33.5927 35.8573 33.6404 35.8478 33.6848 35.8294C33.7292 35.811 33.7696 35.784 33.8036 35.75L35.75 33.808C35.784 33.774 35.811 33.7337 35.8294 33.6892C35.8478 33.6448 35.8573 33.5972 35.8573 33.5491C35.8573 33.501 35.8478 33.4534 35.8294 33.409C35.811 33.3645 35.784 33.3242 35.75 33.2902ZM20.6071 20.6071C18.7143 22.4955 16.2054 23.5357 13.5357 23.5357C10.8661 23.5357 8.35714 22.4955 6.46428 20.6071C4.57589 18.7143 3.53571 16.2054 3.53571 13.5357C3.53571 10.8661 4.57589 8.35268 6.46428 6.46429C8.35714 4.57589 10.8661 3.53571 13.5357 3.53571C16.2054 3.53571 18.7187 4.57143 20.6071 6.46429C22.4955 8.35714 23.5357 10.8661 23.5357 13.5357C23.5357 16.2054 22.4955 18.7188 20.6071 20.6071Z" fill="black"/>
</svg>
