<svg width="38" height="40" viewBox="0 0 38 40" fill="none" xmlns="http://www.w3.org/2000/svg">
<path d="M37.4286 25.0759L34.5045 22.5759C34.6429 21.7277 34.7143 20.8616 34.7143 19.9955C34.7143 19.1294 34.6429 18.2634 34.5045 17.4152L37.4286 14.9152C37.6491 14.7264 37.807 14.4749 37.8812 14.1942C37.9553 13.9135 37.9423 13.6168 37.8438 13.3437L37.8036 13.2277C36.9986 10.9778 35.7931 8.8921 34.2455 7.07141L34.1652 6.97766C33.9774 6.75691 33.7272 6.59823 33.4475 6.52252C33.1678 6.44681 32.8717 6.45763 32.5982 6.55355L28.9688 7.84373C27.6295 6.74552 26.1339 5.87945 24.5179 5.2723L23.817 1.47766C23.7641 1.19214 23.6256 0.929458 23.4199 0.724526C23.2141 0.519595 22.9509 0.382111 22.6652 0.33034L22.5447 0.308018C20.2188 -0.111625 17.7723 -0.111625 15.4464 0.308018L15.3259 0.33034C15.0402 0.382111 14.777 0.519595 14.5712 0.724526C14.3655 0.929458 14.227 1.19214 14.1741 1.47766L13.4688 5.29016C11.8656 5.89743 10.3726 6.76304 9.04912 7.85266L5.39287 6.55355C5.1195 6.45687 4.82318 6.44566 4.54329 6.52141C4.2634 6.59716 4.01319 6.7563 3.8259 6.97766L3.74554 7.07141C2.19977 8.89339 0.994545 10.9787 0.187509 13.2277L0.14733 13.3437C-0.0535625 13.9018 0.111616 14.5268 0.562509 14.9152L3.52233 17.4419C3.38394 18.2812 3.31697 19.1384 3.31697 19.9911C3.31697 20.8482 3.38394 21.7053 3.52233 22.5402L0.562509 25.0669C0.341954 25.2558 0.1841 25.5072 0.109938 25.7879C0.0357747 26.0686 0.048817 26.3653 0.14733 26.6384L0.187509 26.7544C0.995545 29.0044 2.19197 31.0803 3.74554 32.9107L3.8259 33.0044C4.01364 33.2252 4.26387 33.3839 4.54359 33.4596C4.82332 33.5353 5.11941 33.5245 5.39287 33.4286L9.04912 32.1294C10.3795 33.2232 11.8661 34.0893 13.4688 34.6919L14.1741 38.5044C14.227 38.79 14.3655 39.0527 14.5712 39.2576C14.777 39.4625 15.0402 39.6 15.3259 39.6518L15.4464 39.6741C17.7937 40.096 20.1974 40.096 22.5447 39.6741L22.6652 39.6518C22.9509 39.6 23.2141 39.4625 23.4199 39.2576C23.6256 39.0527 23.7641 38.79 23.817 38.5044L24.5179 34.7098C26.1333 34.1043 27.6373 33.2354 28.9688 32.1384L32.5982 33.4286C32.8716 33.5252 33.1679 33.5365 33.4478 33.4607C33.7277 33.3849 33.9779 33.2258 34.1652 33.0044L34.2455 32.9107C35.7991 31.0759 36.9955 29.0044 37.8036 26.7544L37.8438 26.6384C38.0447 26.0893 37.8795 25.4643 37.4286 25.0759ZM31.3348 17.9419C31.4464 18.6161 31.5045 19.308 31.5045 20C31.5045 20.6919 31.4464 21.3839 31.3348 22.058L31.0402 23.8482L34.375 26.7009C33.8695 27.8656 33.2313 28.9681 32.4732 29.9866L28.3304 28.5178L26.9286 29.6696C25.8616 30.5446 24.6741 31.2321 23.3884 31.7143L21.6875 32.3527L20.8884 36.683C19.6276 36.8259 18.3546 36.8259 17.0938 36.683L16.2947 32.3437L14.6072 31.6964C13.3348 31.2143 12.1518 30.5268 11.0938 29.6562L9.69197 28.5L5.52233 29.9821C4.7634 28.9598 4.12947 27.8571 3.62054 26.6964L6.99108 23.8169L6.7009 22.0312C6.59376 21.3661 6.53572 20.6786 6.53572 20C6.53572 19.3169 6.5893 18.6339 6.7009 17.9687L6.99108 16.183L3.62054 13.3036C4.12501 12.1384 4.7634 11.0402 5.52233 10.0178L9.69197 11.5L11.0938 10.3437C12.1518 9.4732 13.3348 8.7857 14.6072 8.30355L16.2991 7.66516L17.0982 3.32588C18.3527 3.18302 19.6339 3.18302 20.8929 3.32588L21.692 7.65623L23.3929 8.29463C24.6741 8.77677 25.8661 9.46427 26.933 10.3393L28.3348 11.4911L32.4777 10.0223C33.2366 11.0446 33.8705 12.1473 34.3795 13.308L31.0447 16.1607L31.3348 17.9419ZM19 11.6964C14.6607 11.6964 11.1429 15.2143 11.1429 19.5536C11.1429 23.8928 14.6607 27.4107 19 27.4107C23.3393 27.4107 26.8572 23.8928 26.8572 19.5536C26.8572 15.2143 23.3393 11.6964 19 11.6964ZM22.5357 23.0893C22.072 23.5543 21.5209 23.9231 20.9141 24.1744C20.3073 24.4257 19.6568 24.5546 19 24.5536C17.6652 24.5536 16.4107 24.0312 15.4643 23.0893C14.9992 22.6255 14.6304 22.0744 14.3791 21.4676C14.1278 20.8608 13.999 20.2103 14 19.5536C14 18.2187 14.5223 16.9643 15.4643 16.0178C16.4107 15.0714 17.6652 14.5536 19 14.5536C20.3348 14.5536 21.5893 15.0714 22.5357 16.0178C23.0008 16.4816 23.3696 17.0327 23.6209 17.6395C23.8722 18.2463 24.001 18.8968 24 19.5536C24 20.8884 23.4777 22.1428 22.5357 23.0893Z" fill="black"/>
</svg>
