<svg width="34" height="36" viewBox="0 0 34 36" fill="none" xmlns="http://www.w3.org/2000/svg">
<path d="M32.4688 29.2321C31.6266 27.2374 30.4045 25.4255 28.8705 23.8973C27.3412 22.3648 25.5296 21.1429 23.5357 20.2991C23.5179 20.2902 23.5 20.2857 23.4821 20.2768C26.2634 18.2679 28.0714 14.9955 28.0714 11.3036C28.0714 5.1875 23.1161 0.232147 17 0.232147C10.8839 0.232147 5.92857 5.1875 5.92857 11.3036C5.92857 14.9955 7.73661 18.2679 10.5179 20.2813C10.5 20.2902 10.4821 20.2946 10.4643 20.3036C8.46428 21.1473 6.66964 22.3572 5.12946 23.9018C3.59692 25.4311 2.37502 27.2427 1.53125 29.2366C0.702329 31.1886 0.255275 33.2815 0.214284 35.4018C0.213092 35.4494 0.22145 35.4968 0.238864 35.5412C0.256277 35.5856 0.282395 35.626 0.315679 35.6601C0.348962 35.6942 0.388737 35.7213 0.43266 35.7399C0.476583 35.7584 0.523765 35.7679 0.571427 35.7679H3.25C3.44643 35.7679 3.60268 35.6116 3.60714 35.4197C3.69643 31.9732 5.08036 28.7455 7.52678 26.2991C10.058 23.7679 13.4196 22.375 17 22.375C20.5804 22.375 23.942 23.7679 26.4732 26.2991C28.9196 28.7455 30.3036 31.9732 30.3929 35.4197C30.3973 35.6161 30.5536 35.7679 30.75 35.7679H33.4286C33.4762 35.7679 33.5234 35.7584 33.5673 35.7399C33.6113 35.7213 33.651 35.6942 33.6843 35.6601C33.7176 35.626 33.7437 35.5856 33.7611 35.5412C33.7785 35.4968 33.7869 35.4494 33.7857 35.4018C33.7411 33.2679 33.2991 31.192 32.4688 29.2321ZM17 18.9821C14.9509 18.9821 13.0223 18.183 11.5714 16.7321C10.1205 15.2813 9.32143 13.3527 9.32143 11.3036C9.32143 9.25447 10.1205 7.3259 11.5714 5.875C13.0223 4.42411 14.9509 3.625 17 3.625C19.0491 3.625 20.9777 4.42411 22.4286 5.875C23.8795 7.3259 24.6786 9.25447 24.6786 11.3036C24.6786 13.3527 23.8795 15.2813 22.4286 16.7321C20.9777 18.183 19.0491 18.9821 17 18.9821Z" fill="black"/>
</svg>
